<?xml version="1.0" encoding="iso-8859-1"?>
<!-- Generator: Adobe Illustrator 18.0.0, SVG Export Plug-In . SVG Version: 6.00 Build 0)  -->
<!DOCTYPE svg PUBLIC "-//W3C//DTD SVG 1.1//EN" "http://www.w3.org/Graphics/SVG/1.1/DTD/svg11.dtd">
<svg version="1.1" id="Capa_1" xmlns="http://www.w3.org/2000/svg" xmlns:xlink="http://www.w3.org/1999/xlink" x="0px" y="0px"
	 viewBox="0 0 314.652 314.652" style="enable-background:new 0 0 314.652 314.652;" xml:space="preserve">
<g>
	<path d="M157.326,0C70.576,0,0,70.576,0,157.326s70.576,157.326,157.326,157.326s157.326-70.576,157.326-157.326
		S244.076,0,157.326,0z M157.326,296.652C80.502,296.652,18,234.15,18,157.326S80.502,18,157.326,18s139.326,62.502,139.326,139.326
		S234.15,296.652,157.326,296.652z"/>
	<path d="M200.481,76.642c-34.44-26.361-81.819-22.517-105.614,8.57c-18.037,23.565-17.872,57.435,0.411,84.281
		c2.798,4.106,8.395,5.171,12.505,2.372c4.108-2.798,5.17-8.396,2.372-12.505c-13.904-20.417-14.305-45.818-0.995-63.207
		c17.764-23.207,53.822-25.547,80.38-5.219c26.559,20.329,33.715,55.748,15.952,78.954c-13.722,17.928-38.68,23.803-62.209,15.207
		l11.668-55.423c1.024-4.864-2.089-9.638-6.952-10.661c-4.874-1.026-9.639,2.089-10.661,6.952l-24,114
		c-1.024,4.864,2.089,9.638,6.952,10.661c0.626,0.132,1.249,0.195,1.863,0.195c4.166,0,7.906-2.909,8.798-7.147l8.593-40.816
		c8.41,2.787,16.954,4.153,25.298,4.153c21.622,0,41.892-9.129,54.943-26.181C243.58,149.741,234.921,103.003,200.481,76.642z"/>
</g>
<g>
</g>
<g>
</g>
<g>
</g>
<g>
</g>
<g>
</g>
<g>
</g>
<g>
</g>
<g>
</g>
<g>
</g>
<g>
</g>
<g>
</g>
<g>
</g>
<g>
</g>
<g>
</g>
<g>
</g>
</svg>
