<?xml version="1.0" encoding="UTF-8"?>
<svg version="1.1" viewBox="0 0 1135.4 834.37" xmlns="http://www.w3.org/2000/svg">
 <defs>
  <radialGradient id="a" cx="189.29" cy="67.666" r="25" gradientUnits="userSpaceOnUse">
   <stop stop-color="#fff" offset="0"/>
   <stop stop-color="#fff" stop-opacity="0" offset="1"/>
  </radialGradient>
 </defs>
 <g transform="translate(80.832 -308.89)">
  <rect x="-80.812" y="308.89" width="1135.4" height="307.09" fill="#c8beb7"/>
  <path d="m-80.832 615.96 317.15-12.853 127.33-19.472 60.609 32.325 155.56-16.162 474.75 16.162v527.3h-1135.4z" fill="#e3dbdb"/>
  <path d="m122.63 1114.1 25.301 1.6465 11.514 3.556 41.339-2.7752 33.592 3.7262 26.933 0.9663-9.4164-2.4146-26.15-4.997 3.2616-0.2147 8.1131-1.6294 8.944-1.3628 9.6068-3.0328-7.4632-0.739 3.9464-0.376 5.5822 0.5103 16.497-0.6265 59.24 3.9471 45.33-2.2417 115.55-7.401 107.31-12.017-2.2949-1.0781 17.443-0.5725-0.1038-0.051 23.129 0.061 0.0537 0.041 18.921-1.5286-3.4165-1.0952-17.581 1.3844-1.204-0.023 9.7826-1.3914-1.6892-2.8207-9.0744 0.3444 2.7761 2.309-17.792 1.179 0.48728 0.045-8.758-0.1866-1.8119-0.7062 7.3224-2.2668 12.799-1.0916-5.141-0.73-12.982 1.0657 0.15045 0.03-20.135 2.8031-5.2377-2.4684-110.73 11.924-86.41 4.4848 49.589-6.2503 72.819-6.8142 0.21515-0.05 13.975-1.1764-4.6602-1.034 9.1069-2.1698 41.423-3.6283 17.19 0.5236 11.223-1.0862 1.2895 0.2755 86.243-10.064-1.3386-0.7866 13.216-3.1378 31.06-3.9891 0.85256 0.1686 19.811-2.2634 95.98 1.634-26.984-8.7948 37.725-3.5206 58.645 4.249 14.063-7.6024-1.6502-9.1165-31.808 8.2582-6.6442 0.078-0.15116-1.4216-25.223-4.5271-8.3162 1.0571-13.204-2.8053 5.809 0.054-5.2097-0.4673c-0.0317-0.089-0.18043-0.1838-0.4222-0.2678l3.4166-0.7263-4.9033 0.4426c-0.37163-0.044-0.79506-0.083-1.2218-0.1085l-0.31331-0.9728-2.3385 0.9396c-0.37363 0.01-0.70145 0.023-1.0572 0.047l-4.016-0.6099 2.1843 0.8208c-0.0794 0.015-0.13711 0.025-0.20792 0.041l-5.655 0.01 4.7438 0.4673c0.0229 0.064 0.15338 0.1272 0.28276 0.1889l-4.4669 0.8359 6.498-0.4343c0.39959 0.039 0.81455 0.077 1.2612 0.096l0.42461 0.872 1.933-0.6923 10.974 2.9682-6.5275 0.8276-1.4781 0.8129-24.23 3.8968-15.68 0.8392-28.453-9.2796-69.023 4.5154 30.225-5.5357 12.32-1.3604-2.9736-0.3527 13.078-2.3975c9.2809-1.0028 20.965-1.9836 31.237-2.9205l17.597-2.1897-22.484-4.8861-34.892-4.5254-3.0073 0.2956-3.5297 1.6864 10.028 4.5925-21.903 5.1142c-5.51 0.5294-11.032 1.0608-16.552 1.5877l-112.72-13.49-149.39 38.296-9.8144 1.1804-5.4742 0.9642-2.8822 0.4636-5.1154-1.0115-141.22 12.926-87.616 19.034 15.44 9.4184-10.653 2.9589 3.3252 1.9571-5.7793 1.2313-0.64873 0.046 0.12433-1.2238-4.9982 1.2732-13.659 0.7886-6.9338 1.5045-6.6914 0.3857-56.602-6.0758-20.593 4.401 20.773-0.9067 33.688 6.1805-26.003 5.2858zm173.67-35.47 38.934-7.6102 66.91-7.1742 14.283-0.9109-9.9391 2.5475-0.1899-0.017-10.979 2.6797z" fill="#241f1c"/>
  <path d="m-58.954 734.23 0.53841-0.19014 3.3314 0.12278 1.337 0.24451 0.93909-0.20713 5.3697-0.37226 7.1182-1.1346-0.58509-0.0384 1.8202-0.46756-1.4894 0.20068 3.6389-0.79376 4.5109-0.64854 0.6191 0.14107 2.1314-0.22423 0.05611 9e-3 2.4631 0.0666 14.007 0.70393 12.09-1.9588 21.286-2.6535 13.711-3.024 31.345-5.0803-5.5679-0.99471 12.872-2.3675-0.73719-0.47814-14.872 2.3556-0.11223-0.0176 13.094-2.1204 8.3683-1.7267-0.0303-0.0136 39.066-6.4747-2.7058-0.36124 5.2366-0.62353 12.024-0.99165 8.034-0.70595 14.297-2.4086-16.463-1.304-9.1848 0.46224-13.807 3.5843c-1.8299 0.40406-3.7536 0.85402-5.6345 1.2427l-3.0309-0.40323-30.415 5.4647-31.019 4.795-1.4623-0.13136c7.6193-1.8135 17.536-4.065 24.119-5.644l12.59-2.27 16.359-3.601-2.8794-0.33529 6.1702-0.96427 1.3195-0.0857 5.1791-0.93342-5.0628-0.91573-2.0872 0.0364 0.55341-0.27628-10.012-1.3269-2.574 0.21693 1.2609 0.56006 2.4196 2.3254-3.0754 0.66949-2.6033-0.30981-29.891 6.8034-8.6322 1.0128-5.5926 1.267-1.4773-0.0452-12.46 2.3612-4.9837-0.44315 1.9654-0.46256-0.74029-0.19543-2.6687 0.52955-3.0814-0.27839 2.3756-0.071 0.9309-0.31461-3.1938 0.1465-0.10326 0.0193 0.98701-0.30583 3.4033-0.0253 0.91297-0.38821-2.2465 0.0469 1.0977-0.14689-1.0493-0.20836-5.4563 0.79271 0.03737 5e-3 -0.32556 0.21457-8.4677-0.7491-16.893 6.2078-4.3725 0.84718-18.762 5.0749-3.4452 1.0718-3.0309 0.66761 1.6989 2.6906 0.80877 0.14419-0.97805 0.34263 0.93444 0.21695-0.75575 0.14733-1.5348-0.3551-1.5186 0.30234-1.7281 0.18105-1.3721-0.46239-0.75945 0.0584 1.5875 0.46069-4.2699 0.45614 0.04116 0.0949-0.54397 0.0566-3.6231 0.63693-4.4922 0.65147-0.44442-0.0518-1.3974 0.3567-2.7296 1.3873 2.375 0.62809z" fill="#241f1c"/>
  <path d="m123 500.02-8.2958 0.50682-2.7208 13.204 0.57922 4.9386-1.1661 5.9713 11.39 4.268-0.18673-5.8151 1.8139-9e-3 3.5195-7.4554 0.17569-4.2383 1.0796-5.5561z" fill="#ac9393"/>
  <path d="m150.99 609.2 1.0104 3.6006-1.9185 1.6538 0.69503 1.6021 2.1695-2.265-0.0479-3.9071z" fill="#ac9393"/>
  <path d="m151.99 611.04 1.5773 4.257-2.9949 1.9553 1.085 1.8942 3.3867-2.678-0.0749-4.6194z" fill="#ac9393"/>
  <path d="m145.41 601.67 3.419-1.0848 4.0432 8.3825-0.0793 0.0237 3.3945 4.2209 0.0605-0.0251-1.0863 5.8134-1.982-0.13947 1.1037-4.548-4.1391-4.5498-1.1104 0.32442-1.3155 2.9302 0.16883 3.9244-1.6125-0.27253-0.58722-3.393 0.0578 3e-3 0.56391-7.4301-0.89895-4.1804z" fill="#6c5353"/>
  <path d="m95.336 604.79 1.7797 1.6436 2.0442 2.3118 2.044 4.2196-1.1332 0.16851-2.1483-2.803-1.3529-0.2494 0.7064 4.7168 1.331 3.2146-0.91267 0.37258-1.8571-3.1889-1.5174-4.465 0.48907 4.6448 1.6928 4.1427-1.2035 0.11829-2.1873-3.9037-1.1113-4.2518 0.42448 4.254 1.3789 3.7826-0.94867 0.0746-1.6973-3.7523-0.74212-3.911-0.30034 3.399 0.97186 2.6523-0.86374 0.06-1.2065-3.0989 0.02415-7.5338 0.37606-1.9144 0.35987-2.5283 4.4868-0.85745z" fill="#ac9393"/>
  <path d="m122.97 656.51 12.949-0.12984 0.33056 15.754 2.2754 19.724 13.534 6.8662 3.8817 1.2939-1.2939 2.1628-15.546 0.85944-0.85947-1.2939-1.7284 1.2939-9.0668-0.42499 0.17831-6.1726 0.76616-1.0344 1.2089-8.9906-6.8466-19.459z" fill="#6c5353"/>
  <path d="m95.403 655.31 14.145 1.3575 0.0798 8.7928-5.034 23.338c0.12733 2.6515 0.63327 5.727 0.98224 8.5002l-0.10389 5.2984-7.3419 0.91755-12.597-0.82742-0.07556-0.83113 1.5206-2.2289 7.3395-4.3308 3.0034-8.8334c-0.71607-6.9934-1.4861-13.981-2.2501-20.969l-0.0029-8.0163z" fill="#6c5353"/>
  <path d="m99.659 589.5 33.245 7.7729 5.9312 41.311-2.909 8.3396 5.9995 40.521-16.877 1.5738-2.6892-21.755 0.40114-14.973c-2.0452-10.986-4.4457-28.01-6.6949-39.044l-5.702 40.191-0.97845 36.118-17.579 0.87221 3.9329-44.456-0.07556-0.0187-0.82843-10.721z" fill="#ac9393"/>
  <path d="m125.92 527.01 14.275 7.8304 3.8169 10.461 7.6974 28.261 0.9755 31.058-10.185 3.6605-1.5617-31.612-7.0172-20.147-1.6402 22.59 3.7846 22.5-39.279-11.439 5.3915-12.265-4.0061-25.826-4.9145 19.767 0.98003 19.062 3.75 13.609-10.379 5.8e-4 -4.7364-38.162 10.297-33.972 16.272-7.1453z" fill="#6c5353"/>
  <path d="m98.935 579.43 38.128 25.644 1.9456-0.0661 0.29279 25.34-3.0223 1.2939-2.72-21.997-35.483-23.953z" fill="#6c5353"/>
  <path d="m125.93 528.34-1.3882-3.1267-14.178-1.9064-2.2112 5.1596z" fill="#6c5353"/>
  <path d="m136.36 595.11-39.29 2.1588-0.43176-6.0446 38.858-1.5111z" fill="#6c5353"/>
  <path d="m90.714 531.65 16.429-5.3572 19.643 0.71429 14.643 8.5714 3.5714 28.929 21.786 45.714-60.357 10.714-25-1.0714z" fill="#6c5353"/>
  <path d="m131.54 584.83-38.128 25.644-1.9456-0.0661-0.29279 25.34 3.0223 1.2939 2.72-21.997 35.483-23.953z" fill="#6c5353"/>
  <path d="m113.69 512.93 0.47686 4.5445 0.91079 3.6202 3.6544 2.3741 7.0154 0.96029-0.1067-1.9206 2.5874-6.0552-2.2674-1.3871-4.8548 0.6402zm8.125 5.2953 3.0774-0.74401 1.846 0.50776-2.0997 3.8373-2.3321-0.20577z" fill="#916f6f"/>
  <path d="m111.23 504.99-0.94691 7.9269 0.70865-0.19015 0.61934 2.6664 0.83716-3.1826 0.76332 1.0486 0.76214-4.8777 4.5728-2.2864 0.15243 1.6767 6.3257-2.2102 0.5335 1.4481 4.1155-0.45729-0.45729-2.0578-4.268-6.4019-5.226-0.88039 0.42784 0.94046-3.6338 1.4157-2.398-0.10779 0.16009 1.2232z" fill="#6c5353"/>
  <path d="m124.5 519.99 5.7391 1.1896-0.41416 0.614-5.3841-1.3431z" fill="#6c5353"/>
  <path d="m198.84 718.63 5.4992 0.0817 5.1202-1.811 3.8714-2.4102 34.934 1.443-8.5044-4.2934-41.256-2.133-27.951-0.37527-10.995 4.6798 32.388-0.0982 0.96691 2.5538z"/>
  <path d="m206.87 691.07-5.2631 0.29252-4.1357 4.7033-2.7053 6.0003-33.808-0.3116 9.8278 9.3324 40.1 1.3751 26.735-1.5806 8.5606-11.957-30.762 3.083-1.9544-5.9115z" fill="#ac9393"/>
  <path d="m819.76 384.97-19.277 6.7494c-3.4999 4.9262-10.566 10.088-12.163 15.8l3.3397 5.5733-1.8589 7.105 2.5769 9.8552 1.1698 9.5785 7.4049 15.06 6.4051-2.2595-2.3363 21.457 49.802-1.8816-9.5755-32.761 2.373-10.124 0.70309-35.741z" fill="#ac9393"/>
  <path d="m716.83 742.81-3.7207 14.364 10.385 5.3674-2.9015 6.5183-11.898-7.5877-1.2845-15.046z" fill="#ac9393"/>
  <path d="m736.75 711.81-11.175-3.5456-13.215 27.398 0.25931 0.0776-11.095 13.796-0.19757-0.082-2.8696 16.083 5.8945 1.2951 2.813-14.865 14.112-13.704 3.6293 1.0604 5.4671 11.328-1.7191 11.076 5.2704-0.89079 1.9193-11.09-0.1888 0.0113-1.8432-24.285 2.9382-13.663z" fill="#6c5353"/>
  <path d="m900.42 722.02-5.817 5.3721-6.6816 7.5561-6.6808 13.792 3.7038 0.55079 7.0218-9.1616 4.4219-0.8151-2.3089 15.417-4.3503 10.507 2.9831 1.2178 6.0698-10.423 4.9596-14.594-1.5985 15.182-5.5328 13.54 3.9335 0.38658 7.1492-12.759 3.6324-13.897-1.3874 13.904-4.5068 12.363 3.1008 0.24365 5.5477-12.264 2.4256-12.783 0.98167 11.11-3.1765 8.6692 2.8232 0.19612 3.9435-10.129-0.0789-24.624-1.2292-6.2574-1.1762-8.2638-14.665-2.8026z" fill="#ac9393"/>
  <path d="m886.29 672.04-108.66 25.406-19.386 135.02 9.5079 27.258 1.4024 40.223 38.821 2.8091 2.8092-25.493c6.6849-35.907 14.531-91.552 21.882-127.62l22.764 127.65 0.23813 19.04 43.156-1.2348 0.27784-38.495 0.24696-0.061 2.7077-35.042z" fill="#ac9393"/>
  <path d="m854.3 462.02-53.847 5.7924-46.672 25.577-12.467 34.206-25.172 92.368-3.1703 101.52 33.276 11.942 5.1011-103.31 22.955-65.861 1.2872 49.032-7.4132 64.788 37.105 106.05-21.739 108.76-67.664 69.608 126.41 28.318 25.056-94.799-3.269 86.099 137.3-34.873-87.696-226.09h11.99l15.494-124.74-33.658-111.03zm41.285 105.57 11.609 46.768-3.1941 62.309-3.1465 11.394-5.3394-13.778 0.16685-0.0471-5.3871-14.827z" fill="#6c5353"/>
  <path d="m810.08 891.07-42.323-0.42434-1.0804 51.491-7.4373 64.467-44.237 22.442-12.688 4.2291 4.2292 7.0692 50.812 2.8091 2.8092-4.2292 5.6492 4.2292 29.635-1.3891-0.5828-20.175-2.5042-3.3809-3.9513-26.529 22.378-66.46z" fill="#6c5353"/>
  <path d="m760.27 760.21 1.2473-12.473 16.714-14.469 8.9808 4.4904-1.4968 14.219-18.959 10.727z" fill="#6c5353"/>
  <path d="m889.82 674.16-124.62 83.817-6.3592-0.21609-0.95697 82.824 9.8784 4.2292 8.8905-71.896 115.98-78.291z" fill="#6c5353"/>
  <path d="m900.2 887.14-46.234 4.4368-0.2608 28.739 16.454 76.279c-0.41619 8.6666-2.0699 18.719-3.2105 27.783l0.33957 17.318 29.775 1.3483 34.156-7.2442 0.24695-2.7165-4.97-7.2853-22.751-7.9644-9.8166-28.872c2.3405-22.858 4.8574-45.697 7.3545-68.538l0.0101-26.201z" fill="#6c5353"/>
  <path d="m797.05 469.76 5.3156-11.972 37.195-14.632 17.094 7.3322 8.4672 19.757z" fill="#6c5353"/>
  <path transform="translate(541.81 317.14)" d="m214.29 67.666c0 13.807-11.193 25-25 25s-25-11.193-25-25 11.193-25 25-25 25 11.193 25 25z" fill="#fff"/>
  <path d="m798.35 414.32 1.9918 14.42 3.9837-3.7616 2.6558 10.658 7.9673-1.2539-1.3279 10.815 11.287-7.0531 4.6476 6.2694 3.3197-5.0156 5.9755 3.1347 2.6558-6.8964 8.6312 6.8964-2.6558-6.8964 3.3197-10.658-2.6558-8.7772 3.3197-10.658c0.68401-2.8448 1.2265-9.719-2.0338-11.406l-18.303-9.4725-9.1402-6.9896-0.39973 5.7253-13.264-2.2841-10.172 6.0317-4.4268 8.9328-6.4973 5.3876z" fill="#6c5353"/>
  <path d="m766.33 690.39 128.42 7.056 1.4112-19.757-127.01-4.9392z" fill="#6c5353"/>
  <path transform="matrix(3.2223 0 0 3.2223 124.44 172.67)" d="m214.29 67.666c0 13.807-11.193 25-25 25s-25-11.193-25-25 11.193-25 25-25 25 11.193 25 25z" fill="url(#a)"/>
  <path d="m837.73 354.42-18.337 10.227-19.386-3.8808-8.4848 33.423-30.417 8.9241-16.434 13.297 13.901 1.6883 71.978-1.1812 69.652-21.568-7.6278-25.866-6.1775 15.294-40.094 1.4649z" fill="#6c5353"/>
  <path d="m815.99 1023.9-1.3495 5.2487c-0.33935 0.1234-0.67156 0.2831-0.95697 0.4939l-3.6188-2.4036 1.7975 3.268-32.815-4.754-2.84 7.0691 36.21 1.2657-2.941 3.341 4.2992-1.7048c0.36504 0.2528 0.79131 0.4451 1.2348 0.5555l1.2594 4.2904 0.56194-4.3211c0.34736-0.09 0.68742-0.2215 0.98783-0.4014l3.993 2.7803-2.6039-4.262c0.13526-0.2568 0.23573-0.5149 0.3087-0.8028l4.2929-0.553-4.2621-1.1756c-0.0207-0.093-0.0343-0.1879-0.0617-0.2778l2.6297-3.4261-4.0806 1.4504c-0.2608-0.1806-0.5612-0.3218-0.86436-0.4321z" fill="#ac9393"/>
 </g>
</svg>
